<svg viewBox="0 0 952.5 400" xmlns="http://www.w3.org/2000/svg"><g><g><g><g><g><line x1="60" y1="378" x2="55" y2="378" style="visibility: inherit;" fill="rgb(0, 0, 0)" stroke="rgb(204, 204, 204)" stroke-width="1px"></line><line x1="60" y1="346.5" x2="55" y2="346.5" style="visibility: inherit;" fill="rgb(0, 0, 0)" stroke="rgb(204, 204, 204)" stroke-width="1px"></line><line x1="60" y1="315" x2="55" y2="315" style="visibility: inherit;" fill="rgb(0, 0, 0)" stroke="rgb(204, 204, 204)" stroke-width="1px"></line><line x1="60" y1="283.5" x2="55" y2="283.5" style="visibility: inherit;" fill="rgb(0, 0, 0)" stroke="rgb(204, 204, 204)" stroke-width="1px"></line><line x1="60" y1="252" x2="55" y2="252" style="visibility: inherit;" fill="rgb(0, 0, 0)" stroke="rgb(204, 204, 204)" stroke-width="1px"></line><line x1="60" y1="220.5" x2="55" y2="220.5" style="visibility: inherit;" fill="rgb(0, 0, 0)" stroke="rgb(204, 204, 204)" stroke-width="1px"></line><line x1="60" y1="189" x2="55" y2="189" style="visibility: inherit;" fill="rgb(0, 0, 0)" stroke="rgb(204, 204, 204)" stroke-width="1px"></line><line x1="60" y1="157.5" x2="55" y2="157.5" style="visibility: inherit;" fill="rgb(0, 0, 0)" stroke="rgb(204, 204, 204)" stroke-width="1px"></line><line x1="60" y1="126" x2="55" y2="126" style="visibility: inherit;" fill="rgb(0, 0, 0)" stroke="rgb(204, 204, 204)" stroke-width="1px"></line><line x1="60" y1="94.5" x2="55" y2="94.5" style="visibility: inherit;" fill="rgb(0, 0, 0)" stroke="rgb(204, 204, 204)" stroke-width="1px"></line><line x1="60" y1="63" x2="55" y2="63" style="visibility: inherit;" fill="rgb(0, 0, 0)" stroke="rgb(204, 204, 204)" stroke-width="1px"></line><line x1="60" y1="31.5" x2="55" y2="31.5" style="visibility: inherit;" fill="rgb(0, 0, 0)" stroke="rgb(204, 204, 204)" stroke-width="1px"></line><line x1="60" y1="0" x2="55" y2="0" style="visibility: inherit;" fill="rgb(0, 0, 0)" stroke="rgb(204, 204, 204)" stroke-width="1px"></line></g><g transform="translate(50, 0)"><text x="0" y="378" dx="0em" dy="0.3em" style="text-anchor: end; visibility: hidden; font-family: &quot;Helvetica Neue&quot;, sans-serif; font-size: 12px; font-weight: 200;" fill="rgb(50, 49, 63)" stroke="none" stroke-width="1px">-2.00</text><text x="0" y="346.5" dx="0em" dy="0.3em" style="text-anchor: end; visibility: inherit; font-family: &quot;Helvetica Neue&quot;, sans-serif; font-size: 12px; font-weight: 200;" fill="rgb(50, 49, 63)" stroke="none" stroke-width="1px">0.00</text><text x="0" y="315" dx="0em" dy="0.3em" style="text-anchor: end; visibility: inherit; font-family: &quot;Helvetica Neue&quot;, sans-serif; font-size: 12px; font-weight: 200;" fill="rgb(50, 49, 63)" stroke="none" stroke-width="1px">2.00</text><text x="0" y="283.5" dx="0em" dy="0.3em" style="text-anchor: end; visibility: inherit; font-family: &quot;Helvetica Neue&quot;, sans-serif; font-size: 12px; font-weight: 200;" fill="rgb(50, 49, 63)" stroke="none" stroke-width="1px">4.00</text><text x="0" y="252" dx="0em" dy="0.3em" style="text-anchor: end; visibility: inherit; font-family: &quot;Helvetica Neue&quot;, sans-serif; font-size: 12px; font-weight: 200;" fill="rgb(50, 49, 63)" stroke="none" stroke-width="1px">6.00</text><text x="0" y="220.5" dx="0em" dy="0.3em" style="text-anchor: end; visibility: inherit; font-family: &quot;Helvetica Neue&quot;, sans-serif; font-size: 12px; font-weight: 200;" fill="rgb(50, 49, 63)" stroke="none" stroke-width="1px">8.00</text><text x="0" y="189" dx="0em" dy="0.3em" style="text-anchor: end; visibility: inherit; font-family: &quot;Helvetica Neue&quot;, sans-serif; font-size: 12px; font-weight: 200;" fill="rgb(50, 49, 63)" stroke="none" stroke-width="1px">10.0</text><text x="0" y="157.5" dx="0em" dy="0.3em" style="text-anchor: end; visibility: inherit; font-family: &quot;Helvetica Neue&quot;, sans-serif; font-size: 12px; font-weight: 200;" fill="rgb(50, 49, 63)" stroke="none" stroke-width="1px">12.0</text><text x="0" y="126" dx="0em" dy="0.3em" style="text-anchor: end; visibility: inherit; font-family: &quot;Helvetica Neue&quot;, sans-serif; font-size: 12px; font-weight: 200;" fill="rgb(50, 49, 63)" stroke="none" stroke-width="1px">14.0</text><text x="0" y="94.5" dx="0em" dy="0.3em" style="text-anchor: end; visibility: inherit; font-family: &quot;Helvetica Neue&quot;, sans-serif; font-size: 12px; font-weight: 200;" fill="rgb(50, 49, 63)" stroke="none" stroke-width="1px">16.0</text><text x="0" y="63" dx="0em" dy="0.3em" style="text-anchor: end; visibility: inherit; font-family: &quot;Helvetica Neue&quot;, sans-serif; font-size: 12px; font-weight: 200;" fill="rgb(50, 49, 63)" stroke="none" stroke-width="1px">18.0</text><text x="0" y="31.5" dx="0em" dy="0.3em" style="text-anchor: end; visibility: inherit; font-family: &quot;Helvetica Neue&quot;, sans-serif; font-size: 12px; font-weight: 200;" fill="rgb(50, 49, 63)" stroke="none" stroke-width="1px">20.0</text><text x="0" y="0" dx="0em" dy="0.3em" style="text-anchor: end; visibility: hidden; font-family: &quot;Helvetica Neue&quot;, sans-serif; font-size: 12px; font-weight: 200;" fill="rgb(50, 49, 63)" stroke="none" stroke-width="1px">22.0</text></g><line x1="60" y1="0" x2="60" y2="378" fill="rgb(0, 0, 0)" stroke="rgb(204, 204, 204)" stroke-width="1px"></line></g></g><g transform="translate(60, 0)" clip-path="url(#clip_0)"><clipPath id="clip_0"><rect width="892" height="378"></rect></clipPath><g><g><g><line x1="0" y1="0" x2="0" y2="378" fill="rgb(0, 0, 0)" stroke="rgb(60, 60, 60)" stroke-width="1px" opacity="0.25"></line><line x1="74.375" y1="0" x2="74.375" y2="378" fill="rgb(0, 0, 0)" stroke="rgb(60, 60, 60)" stroke-width="1px" opacity="0.25"></line><line x1="148.75" y1="0" x2="148.75" y2="378" fill="rgb(0, 0, 0)" stroke="rgb(60, 60, 60)" stroke-width="1px" opacity="0.25"></line><line x1="223.125" y1="0" x2="223.125" y2="378" fill="rgb(0, 0, 0)" stroke="rgb(60, 60, 60)" stroke-width="1px" opacity="0.25"></line><line x1="297.5" y1="0" x2="297.5" y2="378" fill="rgb(0, 0, 0)" stroke="rgb(60, 60, 60)" stroke-width="1px" opacity="0.25"></line><line x1="371.875" y1="0" x2="371.875" y2="378" fill="rgb(0, 0, 0)" stroke="rgb(60, 60, 60)" stroke-width="1px" opacity="0.25"></line><line x1="446.25" y1="0" x2="446.25" y2="378" fill="rgb(0, 0, 0)" stroke="rgb(60, 60, 60)" stroke-width="1px" opacity="0.25"></line><line x1="520.625" y1="0" x2="520.625" y2="378" fill="rgb(0, 0, 0)" stroke="rgb(60, 60, 60)" stroke-width="1px" opacity="0.25"></line><line x1="595" y1="0" x2="595" y2="378" fill="rgb(0, 0, 0)" stroke="rgb(60, 60, 60)" stroke-width="1px" opacity="0.25"></line><line x1="669.375" y1="0" x2="669.375" y2="378" fill="rgb(0, 0, 0)" stroke="rgb(60, 60, 60)" stroke-width="1px" opacity="0.25"></line><line x1="743.75" y1="0" x2="743.75" y2="378" fill="rgb(0, 0, 0)" stroke="rgb(60, 60, 60)" stroke-width="1px" opacity="0.25"></line><line x1="818.125" y1="0" x2="818.125" y2="378" fill="rgb(0, 0, 0)" stroke="rgb(60, 60, 60)" stroke-width="1px" opacity="0.25"></line><line x1="892.5" y1="0" x2="892.5" y2="378" fill="rgb(0, 0, 0)" stroke="rgb(60, 60, 60)" stroke-width="1px" opacity="0.25"></line></g><g><line x1="0" y1="378" x2="892.5" y2="378" fill="rgb(0, 0, 0)" stroke="rgb(60, 60, 60)" stroke-width="1px" opacity="0.25"></line><line x1="0" y1="346.5" x2="892.5" y2="346.5" fill="rgb(0, 0, 0)" stroke="rgb(60, 60, 60)" stroke-width="1px" opacity="0.25"></line><line x1="0" y1="315" x2="892.5" y2="315" fill="rgb(0, 0, 0)" stroke="rgb(60, 60, 60)" stroke-width="1px" opacity="0.25"></line><line x1="0" y1="283.5" x2="892.5" y2="283.5" fill="rgb(0, 0, 0)" stroke="rgb(60, 60, 60)" stroke-width="1px" opacity="0.25"></line><line x1="0" y1="252" x2="892.5" y2="252" fill="rgb(0, 0, 0)" stroke="rgb(60, 60, 60)" stroke-width="1px" opacity="0.25"></line><line x1="0" y1="220.5" x2="892.5" y2="220.5" fill="rgb(0, 0, 0)" stroke="rgb(60, 60, 60)" stroke-width="1px" opacity="0.25"></line><line x1="0" y1="189" x2="892.5" y2="189" fill="rgb(0, 0, 0)" stroke="rgb(60, 60, 60)" stroke-width="1px" opacity="0.25"></line><line x1="0" y1="157.5" x2="892.5" y2="157.5" fill="rgb(0, 0, 0)" stroke="rgb(60, 60, 60)" stroke-width="1px" opacity="0.25"></line><line x1="0" y1="126" x2="892.5" y2="126" fill="rgb(0, 0, 0)" stroke="rgb(60, 60, 60)" stroke-width="1px" opacity="0.25"></line><line x1="0" y1="94.5" x2="892.5" y2="94.5" fill="rgb(0, 0, 0)" stroke="rgb(60, 60, 60)" stroke-width="1px" opacity="0.25"></line><line x1="0" y1="63" x2="892.5" y2="63" fill="rgb(0, 0, 0)" stroke="rgb(60, 60, 60)" stroke-width="1px" opacity="0.25"></line><line x1="0" y1="31.5" x2="892.5" y2="31.5" fill="rgb(0, 0, 0)" stroke="rgb(60, 60, 60)" stroke-width="1px" opacity="0.25"></line><line x1="0" y1="0" x2="892.5" y2="0" fill="rgb(0, 0, 0)" stroke="rgb(60, 60, 60)" stroke-width="1px" opacity="0.25"></line></g></g></g><g><g><line x1="0" y1="346.5" x2="892.5" y2="346.5" fill="rgb(0, 0, 0)" stroke="rgb(153, 153, 153)" stroke-width="1.5px"></line></g></g><g><g><line x1="74.375" y1="0" x2="74.375" y2="378" fill="rgb(0, 0, 0)" stroke="rgb(153, 153, 153)" stroke-width="1.5px"></line></g></g><g><g><g><g><g><path stroke="rgb(255, 112, 67)" stroke-width="2px" d="M75.87499500000001,346.5L77.37142,346.5L78.87111750000001,344.89285711890886L80.36620375,345.63143381058677L81.906733125,346.0081540523517L83.4306025,346.21452067243774L84.95387687499999,345.0357133232777L86.49991,345.63143381058677L88.030175625,345.98239718858264L89.56103625,346.1906978274587L91.109449375,339.99192974837604L92.6203775,341.3380881240237L94.14640375,339.62060957803374L95.68187562499999,341.11353564707935L97.19577875,336.96617135983416L98.71406999999999,334.4790011578507L100.251178125,332.9871481738364L101.78427,332.0921980132023L103.302040625,331.55528609067045L104.81163,331.23315987695753L106.342565,331.0398916864597L107.86293875,327.14388358174966L109.390155,328.58634154057626L110.92525499999999,329.45180902526073L112.428894375,328.7110830088436L113.9689775,328.2666487467751L115.511589375,324.21998540675156L117.051375,323.0519903765882L118.57301312499999,321.09119380389205L120.08126375,319.91471632265416L121.58252312500001,322.9888299009489L123.07084125,314.75329758553863L124.58437250000001,312.33197783488555L126.082359375,307.0991865510057L127.573875625,308.99951166286394L129.1039925,311.399707022475L130.60517750000002,304.01982356699864L132.12317124999998,303.3718944382007L133.633504375,305.5031360668538L135.17105875,305.5218822409522L136.71671999999998,300.49312873972315L138.239548125,302.51587784562213L139.74088187499999,299.9495264062249L141.28379125,294.6297161432207L142.785199375,293.95782908504776L144.32483625,298.5946980521327L145.874588125,298.8568188312894L147.3687075,296.4940906979058L148.87755312500002,295.07645381790957L150.37747375,290.4458722907083L151.90900374999998,293.96752337444207L153.43859999999998,287.2605134238309L154.98537687500001,292.0563080543069L156.512295625,293.67378453217844L158.04642875,282.0442719209294L159.54939875000002,286.40656255174446L161.069698125,290.28393723064016L162.61364875,288.83036263879126L164.113569375,289.21821818408966L165.636918125,290.710930309639L167.153275625,291.60655758496864L168.65728687499998,289.6239348513885L170.173793125,283.3943615116479L171.692381875,288.4766166065814L173.1815925,281.4459687623191L174.686645,283.5275815577989L176.235206875,284.77654923508675L177.74167250000002,275.44592894023725L179.29016,281.18755796495714L180.78688250000002,280.85253598060393L182.31945375,280.651522789992L183.85812375,275.4909136739952L185.34607,278.6945482043971L186.86354312499998,271.7967283218235L188.36792625,278.9980375939089L189.8689625,273.23882375797496L191.35839625,271.043294254785L192.84656562499998,272.24597715368577L194.37809562500001,279.2675868930263L195.869611875,275.92055093418617L197.37778812500002,270.1323299596969L198.89555875,269.1793979758181L200.389380625,249.70763878549087L201.898895625,244.3245832712945L203.428640625,248.6547487611471L204.96679,253.77284865587342L206.483965625,258.1037103951537L208.0045625,261.96222623709224L209.51563937499998,269.317336943885L211.009981875,277.5104027671458L212.52671125,271.0862410594726L214.02380562500002,274.7917458373132L215.55057562500002,273.2350463007583L217.041348125,271.041027780455L218.57607625,273.5046160674582L220.10195375,272.4627684388453L221.618385625,273.097661664122L223.12336374999998,270.9585969984732L224.64329124999998,275.9751581990839L226.15667375,267.6450937178207L227.673998125,270.20705683150726L229.169828125,267.964235300534L230.6782275,251.49854178113526L232.19979124999998,259.25912386705147L233.702091875,263.91547311860126L235.21249937499996,269.22928327034595L236.76210250000003,268.6375699622075L238.292814375,277.1025425781394L239.83862437500002,274.621524345254L241.383244375,266.83291340552273L242.92808749999998,262.159746841684L244.45924562500002,259.3558469033808L245.976495625,255.1535093436581L247.513380625,245.07210500538002L249.035093125,247.843263003228L250.5268325,228.0859602051961L252.051891875,237.65157612311768L253.569885625,249.69094567387057L255.098143125,263.21456740432234L256.64030875,254.94874104340823L258.14833625,248.7292434244153L259.65071125000003,228.61754845790847L261.14445874999996,224.11053027637467L262.633595,223.9263169641952L264.1481675,230.11578897688747L265.669508125,226.2694733861325L267.17656875,236.56168403167948L268.6957525,227.61701282226696L270.18593000000004,228.55020709254538L271.68778437500004,230.37012545715686L273.203695625,227.68207407266448L274.746530625,228.58924384278387L276.278655625,214.01354510404067L277.774039375,210.30812706242438L279.271803125,215.64487503582498L280.76384,225.14692381986535L282.29581625,224.5481530902896L283.807190625,217.8888906525441L285.324886875,213.89333318989682L286.82079125,217.79599871230843L288.33938,240.29759982819988L289.886603125,228.59855749366065L291.39901875,211.49913569782603L292.93582937499997,226.43948262032524L294.45709562499997,239.18369017300998L295.96125562500004,239.27021290217635L297.49680187499996,180.10212293478722L299.04030625,198.78127436168717L300.55547375000003,212.50876581864193L302.07726062499995,238.38525889037035L303.6067825,233.75115593503702L305.147609375,210.81069235939256L306.65868625,207.12641661726516L308.16835000000003,217.51585117198874L309.65882500000004,225.00951070319323L311.149969375,220.68570882517523L312.64855125,214.31142529510512L314.16877625,214.26685758032235L315.67843999999997,223.0601145481934L317.218820625,220.77606993054567L318.7275175,218.14564436158668L320.25108937500005,214.04738541532237L321.75115875,215.36843245082306L323.287225625,227.501058869679L324.827531875,229.74063652343702L326.349393125,224.78438311569187L327.875121875,226.85062926860027L329.41892375,216.75037876278984L330.95781687500005,206.91022605604422L332.46770375,136.74613563362655L334.009423125,179.06768198099076L335.52540875,174.2206115918537L337.059690625,199.03236695511222L338.571585625,193.75942137469698L340.09642187500003,194.37565042155896L341.5957475,206.08538905130573L343.127500625,136.25123343078346L344.62162,166.17073765521081L346.12087125,182.86244139149687L347.66846625,147.51746483489813L349.18980687500004,150.25048010256853L350.71337875,177.09028926317077L352.25889125000003,185.63417596116176L353.769373125,198.3205067783267L355.28915187499996,213.492304066996L356.794353125,208.73538364182724L358.33949375,185.7212325883556L359.859941875,188.29273835138372L361.394446875,202.4356418092006L362.92709249999996,193.2813826822611L364.431326875,160.06882960935667L365.97594687500003,186.7612983664288L367.490519375,168.75677901985728L369.039304375,150.39406861354402L370.545993125,185.99643996649678L372.05543375,165.77786638315732L373.558031875,161.206721031524L375.06583624999996,143.34403021565518L376.58011125,171.6864205326524L378.098625625,179.8718511179618L379.60300875,167.14310826751782L381.110664375,168.32586616214033L382.61311374999997,189.1955196972842L384.13995812499996,190.37731061674089L385.6549025,193.60638877330382L387.14522875,159.0038344656119L388.68806375,138.24230188099682L390.17883625,166.10537992696845L391.72330750000003,174.00322915781072L393.226649375,148.50193749468644L394.7429325,173.52116009355257L396.253265625,159.5526972577612L397.773193125,183.93161835465673L399.272295625,144.37896860953472L400.8143125,173.56738236735046L402.311406875,181.00042821878063L403.81482312500003,153.96025572963873L405.32902375000003,164.19615103452395L406.86471875,185.457691822344L408.41276,166.71461629503602L409.908961875,174.36877097865124L411.44681375,187.7812613855611L412.97120375000003,147.94875923459597L414.47290937500003,176.96925554075762L416.01760375000003,196.90155392526938L417.51462375,201.300931153532L419.05002125,200.16056109537848L420.540273125,208.29633665722704L422.03736749999996,211.9178031959659L423.573136875,206.53068432083882L425.117459375,233.5384111933181L426.657245,233.3630479176205L428.20528625000003,216.87782754894263L429.703124375,215.80669893262487L431.2277375,203.82402056120455L432.72163375,143.71440993346346L434.220885,111.42864596007809L435.77071125,146.23718997930612L437.30581125,191.0623145883985L438.8437375,134.79739355955766L440.361805625,113.63844094225311L441.90583062499996,137.48306456535187L443.422039375,158.08983873921113L444.93966125000003,169.19390444515633L446.46866250000005,188.4563438687234L448.01789375,150.87380632123404L449.547118125,145.96428499437005L451.036254375,163.17857099662203L452.578196875,149.56714139634357L454.07662999999997,131.32028724106544L455.59849125000005,149.35217114300963L457.0876275,161.4313002825465L458.632321875,154.81877896789825L460.15262125,145.8112649774797L461.68623375000004,139.14675778485818L463.227506875,157.82805587254452L464.73962500000005,141.31683112026747L466.28208812500003,111.25010347867902L467.830724375,138.57005968394816L469.31881937500003,161.2620334071096L470.830416875,128.25722004426575L472.37332625,112.23433442981877L473.88760125,146.72060306115057L475.40849562499994,158.5923606350607L476.93251375000006,111.5354187842957L478.475571875,143.78125006894777L480.020043125,183.28875064218352L481.56942312500007,179.27325038531012L483.06443500000006,207.1039514328157L484.5540175,192.30237206131906L486.09402625,138.06142564005071L487.622209375,126.93685538403045L489.13685625000005,115.22211202878867L490.667568125,164.89326601564355L492.17462874999995,149.33595960938612L493.69820062499997,152.60157576563165L495.24438250000003,169.68094305611973L496.78580437500005,137.0885682369311L498.332953125,159.11313974052902L499.82595687500003,142.08788144105816L501.332199375,146.99273006626453L502.8282525,128.5156356364994L504.3669225,160.26938018027002L505.9032125,150.3416305114213L507.44485749999996,177.1449795084824L508.95102562500006,179.36699010834872L510.44916125,145.42019406500924L511.968419375,122.53211884226485L513.47354625,122.65927250698851L515.0031425,118.95556230256346L516.5215825,143.1933349782788L518.0506581249999,155.21600098696732L519.5418768750001,159.90960299543968L521.031013125,171.5457617972638L522.580690625,135.68746188487688L524.109915,102.83247472766686L525.6566175,103.27948723985935L527.17282625,122.44769474717486L528.699745,107.48861444504564L530.2365556249999,88.43316386050884L531.785489375,118.57989591304602L533.29493,151.78793874945725L534.7886775000001,166.67276324967438L536.3321075,171.82365554654535L537.8285324999999,139.63418852140865L539.322949375,143.00051070958588L540.8128293750001,163.92030402249225L542.3627299999999,131.1121872200139L543.888384375,134.10731353363798L545.40511375,153.54439052344208L546.927346875,171.50663671732454L548.4553812500001,186.06398082876507L549.943625,187.23838849725908L551.4405706250001,136.28302829183684L552.9534325,147.28981457184287L554.45000625,98.45389114636504L555.95386875,80.49233228455972L557.483241875,131.45539816910625L559.029498125,134.3132401030934L560.522055625,94.44794886837457L562.0527675,96.98876691776547L563.579016875,92.21325774740001L566.370459375,119.58795344681039L567.8643556249999,167.51277086645658L569.367623125,115.62766011661466L570.8648662500001,99.61659126345023L572.3882150000001,97.56995475807014L573.89252375,142.96197045158283L575.402559375,160.11718347257934L576.93446125,109.9303148900662L579.135738125,97.4581889340397L580.6845975,91.23491816694235L582.2049712500001,122.78095210179507L583.7517481250001,127.8485736643363L585.2852118750001,138.44914540023146L586.8058831249999,133.46948724013887L588.3059525,117.88169234408332L589.8526549999999,113.56901660807961L591.392886875,87.04140996484773L592.9044843749999,67.34484357564935L594.396893125,56.78690854864891L595.9499175,49.19214272593001L598.728939375,66.05528082903948L600.2398675000001,95.07316969905332L604.009266875,70.90390662595053L605.548085625,63.96234157231106L607.0375937499999,47.19740254012737L608.562355625,33.35843671755782L612.521188125,33.87506683705328L614.014043125,39.22504010223196L615.519690625,92.8350240613392L617.0581375,84.6810168400628L618.569363125,79.78861250729699L620.071143125,93.23316630274854L624.0261825,69.79990458816764L626.070528125,83.4599451561599L627.5713412499999,65.19596469043665L629.064716875,65.5775836207805L630.6053949999999,78.40654897083868L634.421725,64.68392457598469L638.293985,52.670359552109346L639.8034256249999,49.24221092474704L641.294049375,47.18532174832967L645.1425837500001,67.37119184736815L646.68274125,63.10271751168017L648.213304375,49.20162570048956L657.810654375,43.380980226812255L659.298898125,42.408590539346676L660.792943125,48.12515672686732L662.3055075000001,31.395091632861067L663.803345625,40.25705257645734L675.962170625,50.614236352392936L677.466925625,66.90853700491715L685.75654,65.34512220295028L687.5894375,60.627070918510924L692.3513712499999,47.716237744588L693.8640099999999,76.5097450500121L695.408109375,71.10584703000728L696.94566375,84.24351062126362L698.439485625,92.12610877601742L699.96558625,75.43567007212903L705.7958425,65.42140684979597L715.0950975000001,61.93284651313684L716.5904812499999,97.63971031114141L720.48713625,93.86382858994409L721.998659375,77.73829475070721L725.8626637499999,103.3429768504243L727.396425,83.42578370699528L731.3070624999999,67.69546541767863L732.825279375,65.81727925060721L736.7947475,65.9503723568829L740.5744106249999,64.77022341412976L744.313539375,60.282131645218556L745.824988125,47.509274180612636L748.966141875,62.52556210510829L750.47335125,50.11533726306499L752.014029375,54.00919755132048L755.036629375,70.20551853079229L756.5468137500001,76.14330871521611L758.0492631249999,64.58598522912968L759.5633893749999,61.43159354073708L763.355621875,58.27895372118297L764.8918375000001,77.80737343433947L766.423739375,63.06442646386296L767.947831875,59.25865347505851L771.83057875,48.15519208503508L775.60525875,52.833110444502495L777.117228125,58.159871073220074L778.64987375,50.01592024067281L782.810039375,45.12954974114439L784.32676875,58.57772984468659L785.858819375,54.04663790681195L787.37049125,55.107985147346426L788.894806875,49.444793491667156L790.41837875,56.1268809015188L791.92834,56.35613094417056L793.430640625,52.713678566502324L794.9801693750001,102.18820593827178L796.478676875,71.39292596622238L798.02753625,57.95575317647416L799.575056875,47.37345190588445L801.0731925,57.40407354678996L804.90529,63.422446531333264L806.42268875,55.69346311228139L807.956821875,66.17608267388744L809.4509412499999,57.34564479781392L810.95539875,55.82738447542903L812.45271625,49.876433088516706L816.45141375,46.30586225636932L817.992835625,56.763519757080815" style="fill: none;" fill="none"></path></g></g></g></g><g opacity="0.2"><g><g><g><path stroke="rgb(255, 112, 67)" stroke-width="2px" d="M75.87499500000001,346.5L77.37142,346.5L78.87111750000001,343.34999995306134L80.36620375,346.5L81.906733125,346.5L83.4306025,346.5L84.95387687499999,343.34999995306134L86.49991,346.5L88.030175625,346.5L89.56103625,346.5L91.109449375,330.75L92.6203775,343.34999995306134L94.14640375,337.04999962449074L95.68187562499999,343.34999995306134L97.19577875,330.75L98.71406999999999,330.75L100.251178125,330.75L101.78427,330.75L103.302040625,330.75L104.81163,330.75L106.342565,330.75L107.86293875,321.29999962449074L109.390155,330.75L110.92525499999999,330.75L112.428894375,327.5999992489815L113.9689775,327.5999992489815L115.511589375,318.1500007510185L117.051375,321.29999962449074L118.57301312499999,318.1500007510185L120.08126375,318.1500007510185L121.58252312500001,327.5999992489815L123.07084125,302.4000007510185L124.58437250000001,308.69999849796295L126.082359375,299.25L127.573875625,311.8499992489815L129.1039925,315L130.60517750000002,292.94999849796295L132.12317124999998,302.4000007510185L133.633504375,308.69999849796295L135.17105875,305.55000150203705L136.71671999999998,292.94999849796295L138.239548125,305.55000150203705L139.74088187499999,296.0999992489815L141.28379125,286.6500007510185L142.785199375,292.94999849796295L144.32483625,305.55000150203705L145.874588125,299.25L147.3687075,292.94999849796295L148.87755312500002,292.94999849796295L150.37747375,283.5L151.90900374999998,299.25L153.43859999999998,277.19999849796295L154.98537687500001,299.25L156.512295625,296.0999992489815L158.04642875,264.6000030040741L159.54939875000002,292.94999849796295L161.069698125,296.0999992489815L162.61364875,286.6500007510185L164.113569375,289.80000150203705L165.636918125,292.94999849796295L167.153275625,292.94999849796295L168.65728687499998,286.6500007510185L170.173793125,274.05000150203705L171.692381875,296.0999992489815L173.1815925,270.8999969959259L174.686645,286.6500007510185L176.235206875,286.6500007510185L177.74167250000002,261.44999849796295L179.29016,289.80000150203705L180.78688250000002,280.3500030040741L182.31945375,280.3500030040741L183.85812375,267.75L185.34607,283.5L186.86354312499998,261.44999849796295L188.36792625,289.80000150203705L189.8689625,264.6000030040741L191.35839625,267.75L192.84656562499998,274.05000150203705L194.37809562500001,289.80000150203705L195.869611875,270.8999969959259L197.37778812500002,261.44999849796295L198.89555875,267.75L200.389380625,220.5L201.898895625,236.25L203.428640625,255.1499969959259L204.96679,261.44999849796295L206.483965625,264.6000030040741L208.0045625,267.75L209.51563937499998,280.3500030040741L211.009981875,289.80000150203705L212.52671125,261.44999849796295L214.02380562500002,280.3500030040741L215.55057562500002,270.8999969959259L217.041348125,267.75L218.57607625,277.19999849796295L220.10195375,270.8999969959259L221.618385625,274.05000150203705L223.12336374999998,267.75L224.64329124999998,283.5L226.15667375,255.1499969959259L227.673998125,274.05000150203705L229.169828125,264.6000030040741L230.6782275,226.80000150203705L232.19979124999998,270.8999969959259L233.702091875,270.8999969959259L235.21249937499996,277.19999849796295L236.76210250000003,267.75L238.292814375,289.80000150203705L239.83862437500002,270.8999969959259L241.383244375,255.1499969959259L242.92808749999998,255.1499969959259L244.45924562500002,255.1499969959259L245.976495625,248.8500030040741L247.513380625,229.94999849796295L249.035093125,252L250.5268325,198.4500060081482L252.051891875,252L253.569885625,267.75L255.098143125,283.5L256.64030875,242.55000150203705L258.14833625,239.3999969959259L259.65071125000003,198.4500060081482L261.14445874999996,217.3500030040741L262.633595,223.6499969959259L264.1481675,239.3999969959259L265.669508125,220.5L267.17656875,252L268.6957525,214.2000060081482L270.18593000000004,229.94999849796295L271.68778437500004,233.1000030040741L273.203695625,223.6499969959259L274.746530625,229.94999849796295L276.278655625,192.1499969959259L277.774039375,204.75L279.271803125,223.6499969959259L280.76384,239.3999969959259L282.29581625,223.6499969959259L283.807190625,207.8999969959259L285.324886875,207.8999969959259L286.82079125,223.6499969959259L288.33938,274.05000150203705L289.886603125,211.0499939918518L291.39901875,185.8500030040741L292.93582937499997,248.8500030040741L294.45709562499997,258.30000150203705L295.96125562500004,239.3999969959259L297.49680187499996,91.34998798370361L299.04030625,226.80000150203705L300.55547375000003,233.1000030040741L302.07726062499995,277.19999849796295L303.6067825,226.80000150203705L305.147609375,176.3999969959259L306.65868625,201.6000030040741L308.16835000000003,233.1000030040741L309.65882500000004,236.25L311.149969375,214.2000060081482L312.64855125,204.75L314.16877625,214.2000060081482L315.67843999999997,236.25L317.218820625,217.3500030040741L318.7275175,214.2000060081482L320.25108937500005,207.8999969959259L321.75115875,217.3500030040741L323.287225625,245.69999849796295L324.827531875,233.1000030040741L326.349393125,217.3500030040741L327.875121875,229.94999849796295L329.41892375,201.6000030040741L330.95781687500005,192.1499969959259L332.46770375,31.5L334.009423125,242.55000150203705L335.52540875,166.9500060081482L337.059690625,236.25L338.571585625,185.8500030040741L340.09642187500003,195.2999939918518L341.5957475,223.6499969959259L343.127500625,31.5L344.62162,211.0499939918518L346.12087125,207.8999969959259L347.66846625,94.5L349.18980687500004,154.3500030040741L350.71337875,217.3500030040741L352.25889125000003,198.4500060081482L353.769373125,217.3500030040741L355.28915187499996,236.25L356.794353125,201.6000030040741L358.33949375,151.2000060081482L359.859941875,192.1499969959259L361.394446875,223.6499969959259L362.92709249999996,179.5499939918518L364.431326875,110.25L365.97594687500003,226.80000150203705L367.490519375,141.75L369.039304375,122.8500030040741L370.545993125,239.3999969959259L372.05543375,135.4500060081482L373.558031875,154.3500030040741L375.06583624999996,116.5499939918518L376.58011125,214.2000060081482L378.098625625,192.1499969959259L379.60300875,148.0499939918518L381.110664375,170.1000030040741L382.61311374999997,220.5L384.13995812499996,192.1499969959259L385.6549025,198.4500060081482L387.14522875,107.1000030040741L388.68806375,107.1000030040741L390.17883625,207.8999969959259L391.72330750000003,185.8500030040741L393.226649375,110.25L394.7429325,211.0499939918518L396.253265625,138.6000030040741L397.773193125,220.5L399.272295625,85.0499939918518L400.8143125,217.3500030040741L402.311406875,192.1499969959259L403.81482312500003,113.3999969959259L405.32902375000003,179.5499939918518L406.86471875,217.3500030040741L408.41276,138.6000030040741L409.908961875,185.8500030040741L411.44681375,207.8999969959259L412.97120375000003,88.2000060081482L414.47290937500003,220.5L416.01760375000003,226.80000150203705L417.51462375,207.8999969959259L419.05002125,198.4500060081482L420.540273125,220.5L422.03736749999996,217.3500030040741L423.573136875,198.4500060081482L425.117459375,274.05000150203705L426.657245,233.1000030040741L428.20528625000003,192.1499969959259L429.703124375,214.2000060081482L431.2277375,185.8500030040741L432.72163375,53.54999399185181L434.220885,63L435.77071125,198.4500060081482L437.30581125,258.30000150203705L438.8437375,50.40001201629639L440.361805625,81.90001201629639L441.90583062499996,173.25L443.422039375,189L444.93966125000003,185.8500030040741L446.46866250000005,217.3500030040741L448.01789375,94.5L449.547118125,138.6000030040741L451.036254375,189L452.578196875,129.1499969959259L454.07662999999997,103.9500060081482L455.59849125000005,176.3999969959259L457.0876275,179.5499939918518L458.632321875,144.8999969959259L460.15262125,132.2999939918518L461.68623375000004,129.1499969959259L463.227506875,185.8500030040741L464.73962500000005,116.5499939918518L466.28208812500003,66.15001201629639L467.830724375,179.5499939918518L469.31881937500003,195.2999939918518L470.830416875,78.75L472.37332625,88.2000060081482L473.88760125,198.4500060081482L475.40849562499994,176.3999969959259L476.93251375000006,40.95000600814819L478.475571875,192.1499969959259L480.020043125,242.55000150203705L481.56942312500007,173.25L483.06443500000006,248.8500030040741L484.5540175,170.1000030040741L486.09402625,56.70000600814819L487.622209375,110.25L489.13685625000005,97.6499969959259L490.667568125,239.3999969959259L492.17462874999995,126L493.69820062499997,157.5L495.24438250000003,195.2999939918518L496.78580437500005,88.2000060081482L498.332953125,192.1499969959259L499.82595687500003,116.5499939918518L501.332199375,154.3500030040741L502.8282525,100.7999939918518L504.3669225,207.8999969959259L505.9032125,135.4500060081482L507.44485749999996,217.3500030040741L508.95102562500006,182.7000060081482L510.44916125,94.5L511.968419375,88.2000060081482L513.47354625,122.8500030040741L515.0031425,113.3999969959259L516.5215825,179.5499939918518L518.0506581249999,173.25L519.5418768750001,166.9500060081482L521.031013125,189L522.580690625,81.90001201629639L524.109915,53.54999399185181L525.6566175,103.9500060081482L527.17282625,151.2000060081482L528.699745,85.0499939918518L530.2365556249999,59.84998798370361L531.785489375,163.7999939918518L533.29493,201.6000030040741L534.7886775000001,189L536.3321075,179.5499939918518L537.8285324999999,91.34998798370361L539.322949375,148.0499939918518L540.8128293750001,195.2999939918518L542.3627299999999,81.90001201629639L543.888384375,138.6000030040741L545.40511375,182.7000060081482L546.927346875,198.4500060081482L548.4553812500001,207.8999969959259L549.943625,189L551.4405706250001,59.84998798370361L552.9534325,163.7999939918518L554.45000625,25.200006008148193L555.95386875,53.54999399185181L557.483241875,207.8999969959259L559.029498125,138.6000030040741L560.522055625,34.65001201629639L562.0527675,100.7999939918518L563.579016875,85.0499939918518L566.370459375,160.6499969959259L567.8643556249999,239.3999969959259L569.367623125,37.79999399185181L570.8648662500001,75.59998798370361L572.3882150000001,94.5L573.89252375,211.0499939918518L575.402559375,185.8500030040741L576.93446125,34.65001201629639L579.135738125,78.75L580.6845975,81.90001201629639L582.2049712500001,170.1000030040741L583.7517481250001,135.4500060081482L585.2852118750001,154.3500030040741L586.8058831249999,126L588.3059525,94.5L589.8526549999999,107.1000030040741L591.392886875,47.25L592.9044843749999,37.79999399185181L594.396893125,40.95000600814819L595.9499175,37.79999399185181L598.728939375,91.34998798370361L600.2398675000001,138.6000030040741L604.009266875,34.65001201629639L605.548085625,53.54999399185181L607.0375937499999,22.049993991851807L608.562355625,12.599987983703613L612.521188125,34.65001201629639L614.014043125,47.25L615.519690625,173.25L617.0581375,72.4500060081482L618.569363125,72.4500060081482L620.071143125,113.3999969959259L624.0261825,34.65001201629639L626.070528125,103.9500060081482L627.5713412499999,37.79999399185181L629.064716875,66.15001201629639L630.6053949999999,97.6499969959259L634.421725,44.09998798370361L638.293985,34.65001201629639L639.8034256249999,44.09998798370361L641.294049375,44.09998798370361L645.1425837500001,97.6499969959259L646.68274125,56.70000600814819L648.213304375,28.349987983703613L657.810654375,34.65001201629639L659.298898125,40.95000600814819L660.792943125,56.70000600814819L662.3055075000001,6.299993991851807L663.803345625,53.54999399185181L675.962170625,66.15001201629639L677.466925625,91.34998798370361L685.75654,63L687.5894375,53.54999399185181L692.3513712499999,28.349987983703613L693.8640099999999,119.7000060081482L695.408109375,63L696.94566375,103.9500060081482L698.439485625,103.9500060081482L699.96558625,50.40001201629639L705.7958425,50.40001201629639L715.0950975000001,56.70000600814819L716.5904812499999,151.2000060081482L720.48713625,88.2000060081482L721.998659375,53.54999399185181L725.8626637499999,141.75L727.396425,53.54999399185181L731.3070624999999,44.09998798370361L732.825279375,63L736.7947475,66.15001201629639L740.5744106249999,63L744.313539375,53.54999399185181L745.824988125,28.349987983703613L748.966141875,85.0499939918518L750.47335125,31.5L752.014029375,59.84998798370361L755.036629375,94.5L756.5468137500001,85.0499939918518L758.0492631249999,47.25L759.5633893749999,56.70000600814819L763.355621875,53.54999399185181L764.8918375000001,107.1000030040741L766.423739375,40.95000600814819L767.947831875,53.54999399185181L771.83057875,31.5L775.60525875,59.84998798370361L777.117228125,66.15001201629639L778.64987375,37.79999399185181L782.810039375,37.79999399185181L784.32676875,78.75L785.858819375,47.25L787.37049125,56.70000600814819L788.894806875,40.95000600814819L790.41837875,66.15001201629639L791.92834,56.70000600814819L793.430640625,47.25L794.9801693750001,176.3999969959259L796.478676875,25.200006008148193L798.02753625,37.79999399185181L799.575056875,31.5L801.0731925,72.4500060081482L804.90529,72.4500060081482L806.42268875,44.09998798370361L807.956821875,81.90001201629639L809.4509412499999,44.09998798370361L810.95539875,53.54999399185181L812.45271625,40.95000600814819L816.45141375,40.95000600814819L817.992835625,72.4500060081482" style="fill: none;" fill="none"></path></g></g></g></g></g></g><g transform="translate(60, 378)" clip-path="url(#clip_1)"><clipPath id="clip_1"><rect width="892" height="22"></rect></clipPath><g><g><line x1="0" y1="0" x2="0" y2="5" style="visibility: inherit;" fill="rgb(0, 0, 0)" stroke="rgb(204, 204, 204)" stroke-width="1px"></line><line x1="74.375" y1="0" x2="74.375" y2="5" style="visibility: inherit;" fill="rgb(0, 0, 0)" stroke="rgb(204, 204, 204)" stroke-width="1px"></line><line x1="148.75" y1="0" x2="148.75" y2="5" style="visibility: inherit;" fill="rgb(0, 0, 0)" stroke="rgb(204, 204, 204)" stroke-width="1px"></line><line x1="223.125" y1="0" x2="223.125" y2="5" style="visibility: inherit;" fill="rgb(0, 0, 0)" stroke="rgb(204, 204, 204)" stroke-width="1px"></line><line x1="297.5" y1="0" x2="297.5" y2="5" style="visibility: inherit;" fill="rgb(0, 0, 0)" stroke="rgb(204, 204, 204)" stroke-width="1px"></line><line x1="371.875" y1="0" x2="371.875" y2="5" style="visibility: inherit;" fill="rgb(0, 0, 0)" stroke="rgb(204, 204, 204)" stroke-width="1px"></line><line x1="446.25" y1="0" x2="446.25" y2="5" style="visibility: inherit;" fill="rgb(0, 0, 0)" stroke="rgb(204, 204, 204)" stroke-width="1px"></line><line x1="520.625" y1="0" x2="520.625" y2="5" style="visibility: inherit;" fill="rgb(0, 0, 0)" stroke="rgb(204, 204, 204)" stroke-width="1px"></line><line x1="595" y1="0" x2="595" y2="5" style="visibility: inherit;" fill="rgb(0, 0, 0)" stroke="rgb(204, 204, 204)" stroke-width="1px"></line><line x1="669.375" y1="0" x2="669.375" y2="5" style="visibility: inherit;" fill="rgb(0, 0, 0)" stroke="rgb(204, 204, 204)" stroke-width="1px"></line><line x1="743.75" y1="0" x2="743.75" y2="5" style="visibility: inherit;" fill="rgb(0, 0, 0)" stroke="rgb(204, 204, 204)" stroke-width="1px"></line><line x1="818.125" y1="0" x2="818.125" y2="5" style="visibility: inherit;" fill="rgb(0, 0, 0)" stroke="rgb(204, 204, 204)" stroke-width="1px"></line><line x1="892.5" y1="0" x2="892.5" y2="5" style="visibility: inherit;" fill="rgb(0, 0, 0)" stroke="rgb(204, 204, 204)" stroke-width="1px"></line></g><g transform="translate(0, 8)"><text x="0" y="0" dx="0em" dy="0.95em" style="text-anchor: middle; visibility: hidden; font-family: &quot;Helvetica Neue&quot;, sans-serif; font-size: 12px; font-weight: 200;" fill="rgb(50, 49, 63)" stroke="none" stroke-width="1px">-1.000M</text><text x="74.375" y="0" dx="0em" dy="0.95em" style="text-anchor: middle; visibility: inherit; font-family: &quot;Helvetica Neue&quot;, sans-serif; font-size: 12px; font-weight: 200;" fill="rgb(50, 49, 63)" stroke="none" stroke-width="1px">0.000</text><text x="148.75" y="0" dx="0em" dy="0.95em" style="text-anchor: middle; visibility: inherit; font-family: &quot;Helvetica Neue&quot;, sans-serif; font-size: 12px; font-weight: 200;" fill="rgb(50, 49, 63)" stroke="none" stroke-width="1px">1.000M</text><text x="223.125" y="0" dx="0em" dy="0.95em" style="text-anchor: middle; visibility: inherit; font-family: &quot;Helvetica Neue&quot;, sans-serif; font-size: 12px; font-weight: 200;" fill="rgb(50, 49, 63)" stroke="none" stroke-width="1px">2.000M</text><text x="297.5" y="0" dx="0em" dy="0.95em" style="text-anchor: middle; visibility: inherit; font-family: &quot;Helvetica Neue&quot;, sans-serif; font-size: 12px; font-weight: 200;" fill="rgb(50, 49, 63)" stroke="none" stroke-width="1px">3.000M</text><text x="371.875" y="0" dx="0em" dy="0.95em" style="text-anchor: middle; visibility: inherit; font-family: &quot;Helvetica Neue&quot;, sans-serif; font-size: 12px; font-weight: 200;" fill="rgb(50, 49, 63)" stroke="none" stroke-width="1px">4.000M</text><text x="446.25" y="0" dx="0em" dy="0.95em" style="text-anchor: middle; visibility: inherit; font-family: &quot;Helvetica Neue&quot;, sans-serif; font-size: 12px; font-weight: 200;" fill="rgb(50, 49, 63)" stroke="none" stroke-width="1px">5.000M</text><text x="520.625" y="0" dx="0em" dy="0.95em" style="text-anchor: middle; visibility: inherit; font-family: &quot;Helvetica Neue&quot;, sans-serif; font-size: 12px; font-weight: 200;" fill="rgb(50, 49, 63)" stroke="none" stroke-width="1px">6.000M</text><text x="595" y="0" dx="0em" dy="0.95em" style="text-anchor: middle; visibility: inherit; font-family: &quot;Helvetica Neue&quot;, sans-serif; font-size: 12px; font-weight: 200;" fill="rgb(50, 49, 63)" stroke="none" stroke-width="1px">7.000M</text><text x="669.375" y="0" dx="0em" dy="0.95em" style="text-anchor: middle; visibility: inherit; font-family: &quot;Helvetica Neue&quot;, sans-serif; font-size: 12px; font-weight: 200;" fill="rgb(50, 49, 63)" stroke="none" stroke-width="1px">8.000M</text><text x="743.75" y="0" dx="0em" dy="0.95em" style="text-anchor: middle; visibility: inherit; font-family: &quot;Helvetica Neue&quot;, sans-serif; font-size: 12px; font-weight: 200;" fill="rgb(50, 49, 63)" stroke="none" stroke-width="1px">9.000M</text><text x="818.125" y="0" dx="0em" dy="0.95em" style="text-anchor: middle; visibility: inherit; font-family: &quot;Helvetica Neue&quot;, sans-serif; font-size: 12px; font-weight: 200;" fill="rgb(50, 49, 63)" stroke="none" stroke-width="1px">10.00M</text><text x="892.5" y="0" dx="0em" dy="0.95em" style="text-anchor: middle; visibility: hidden; font-family: &quot;Helvetica Neue&quot;, sans-serif; font-size: 12px; font-weight: 200;" fill="rgb(50, 49, 63)" stroke="none" stroke-width="1px">11.00M</text></g><line x1="0" y1="0" x2="892.5" y2="0" fill="rgb(0, 0, 0)" stroke="rgb(204, 204, 204)" stroke-width="1px"></line></g></g></g></g></svg>