<svg viewBox="0 0 952.5 400" xmlns="http://www.w3.org/2000/svg"><g><g><g><g><g><line x1="60" y1="378" x2="55" y2="378" style="visibility: inherit;" fill="rgb(0, 0, 0)" stroke="rgb(204, 204, 204)" stroke-width="1px"></line><line x1="60" y1="340.2" x2="55" y2="340.2" style="visibility: inherit;" fill="rgb(0, 0, 0)" stroke="rgb(204, 204, 204)" stroke-width="1px"></line><line x1="60" y1="302.4" x2="55" y2="302.4" style="visibility: inherit;" fill="rgb(0, 0, 0)" stroke="rgb(204, 204, 204)" stroke-width="1px"></line><line x1="60" y1="264.6" x2="55" y2="264.6" style="visibility: inherit;" fill="rgb(0, 0, 0)" stroke="rgb(204, 204, 204)" stroke-width="1px"></line><line x1="60" y1="226.79999999999998" x2="55" y2="226.79999999999998" style="visibility: inherit;" fill="rgb(0, 0, 0)" stroke="rgb(204, 204, 204)" stroke-width="1px"></line><line x1="60" y1="189" x2="55" y2="189" style="visibility: inherit;" fill="rgb(0, 0, 0)" stroke="rgb(204, 204, 204)" stroke-width="1px"></line><line x1="60" y1="151.20000000000002" x2="55" y2="151.20000000000002" style="visibility: inherit;" fill="rgb(0, 0, 0)" stroke="rgb(204, 204, 204)" stroke-width="1px"></line><line x1="60" y1="113.40000000000003" x2="55" y2="113.40000000000003" style="visibility: inherit;" fill="rgb(0, 0, 0)" stroke="rgb(204, 204, 204)" stroke-width="1px"></line><line x1="60" y1="75.59999999999997" x2="55" y2="75.59999999999997" style="visibility: inherit;" fill="rgb(0, 0, 0)" stroke="rgb(204, 204, 204)" stroke-width="1px"></line><line x1="60" y1="37.80000000000001" x2="55" y2="37.80000000000001" style="visibility: inherit;" fill="rgb(0, 0, 0)" stroke="rgb(204, 204, 204)" stroke-width="1px"></line><line x1="60" y1="0" x2="55" y2="0" style="visibility: inherit;" fill="rgb(0, 0, 0)" stroke="rgb(204, 204, 204)" stroke-width="1px"></line></g><g transform="translate(50, 0)"><text x="0" y="378" dx="0em" dy="0.3em" style="text-anchor: end; visibility: hidden; font-family: &quot;Helvetica Neue&quot;, sans-serif; font-size: 12px; font-weight: 200;" fill="rgb(50, 49, 63)" stroke="none" stroke-width="1px">-10.0</text><text x="0" y="340.2" dx="0em" dy="0.3em" style="text-anchor: end; visibility: inherit; font-family: &quot;Helvetica Neue&quot;, sans-serif; font-size: 12px; font-weight: 200;" fill="rgb(50, 49, 63)" stroke="none" stroke-width="1px">0.00</text><text x="0" y="302.4" dx="0em" dy="0.3em" style="text-anchor: end; visibility: inherit; font-family: &quot;Helvetica Neue&quot;, sans-serif; font-size: 12px; font-weight: 200;" fill="rgb(50, 49, 63)" stroke="none" stroke-width="1px">10.0</text><text x="0" y="264.6" dx="0em" dy="0.3em" style="text-anchor: end; visibility: inherit; font-family: &quot;Helvetica Neue&quot;, sans-serif; font-size: 12px; font-weight: 200;" fill="rgb(50, 49, 63)" stroke="none" stroke-width="1px">20.0</text><text x="0" y="226.79999999999998" dx="0em" dy="0.3em" style="text-anchor: end; visibility: inherit; font-family: &quot;Helvetica Neue&quot;, sans-serif; font-size: 12px; font-weight: 200;" fill="rgb(50, 49, 63)" stroke="none" stroke-width="1px">30.0</text><text x="0" y="189" dx="0em" dy="0.3em" style="text-anchor: end; visibility: inherit; font-family: &quot;Helvetica Neue&quot;, sans-serif; font-size: 12px; font-weight: 200;" fill="rgb(50, 49, 63)" stroke="none" stroke-width="1px">40.0</text><text x="0" y="151.20000000000002" dx="0em" dy="0.3em" style="text-anchor: end; visibility: inherit; font-family: &quot;Helvetica Neue&quot;, sans-serif; font-size: 12px; font-weight: 200;" fill="rgb(50, 49, 63)" stroke="none" stroke-width="1px">50.0</text><text x="0" y="113.40000000000003" dx="0em" dy="0.3em" style="text-anchor: end; visibility: inherit; font-family: &quot;Helvetica Neue&quot;, sans-serif; font-size: 12px; font-weight: 200;" fill="rgb(50, 49, 63)" stroke="none" stroke-width="1px">60.0</text><text x="0" y="75.59999999999997" dx="0em" dy="0.3em" style="text-anchor: end; visibility: inherit; font-family: &quot;Helvetica Neue&quot;, sans-serif; font-size: 12px; font-weight: 200;" fill="rgb(50, 49, 63)" stroke="none" stroke-width="1px">70.0</text><text x="0" y="37.80000000000001" dx="0em" dy="0.3em" style="text-anchor: end; visibility: inherit; font-family: &quot;Helvetica Neue&quot;, sans-serif; font-size: 12px; font-weight: 200;" fill="rgb(50, 49, 63)" stroke="none" stroke-width="1px">80.0</text><text x="0" y="0" dx="0em" dy="0.3em" style="text-anchor: end; visibility: hidden; font-family: &quot;Helvetica Neue&quot;, sans-serif; font-size: 12px; font-weight: 200;" fill="rgb(50, 49, 63)" stroke="none" stroke-width="1px">90.0</text></g><line x1="60" y1="0" x2="60" y2="378" fill="rgb(0, 0, 0)" stroke="rgb(204, 204, 204)" stroke-width="1px"></line></g></g><g transform="translate(60, 0)" clip-path="url(#clip_0)"><clipPath id="clip_0"><rect width="892" height="378"></rect></clipPath><g><g><g><line x1="0" y1="0" x2="0" y2="378" fill="rgb(0, 0, 0)" stroke="rgb(60, 60, 60)" stroke-width="1px" opacity="0.25"></line><line x1="74.375" y1="0" x2="74.375" y2="378" fill="rgb(0, 0, 0)" stroke="rgb(60, 60, 60)" stroke-width="1px" opacity="0.25"></line><line x1="148.75" y1="0" x2="148.75" y2="378" fill="rgb(0, 0, 0)" stroke="rgb(60, 60, 60)" stroke-width="1px" opacity="0.25"></line><line x1="223.125" y1="0" x2="223.125" y2="378" fill="rgb(0, 0, 0)" stroke="rgb(60, 60, 60)" stroke-width="1px" opacity="0.25"></line><line x1="297.5" y1="0" x2="297.5" y2="378" fill="rgb(0, 0, 0)" stroke="rgb(60, 60, 60)" stroke-width="1px" opacity="0.25"></line><line x1="371.875" y1="0" x2="371.875" y2="378" fill="rgb(0, 0, 0)" stroke="rgb(60, 60, 60)" stroke-width="1px" opacity="0.25"></line><line x1="446.25" y1="0" x2="446.25" y2="378" fill="rgb(0, 0, 0)" stroke="rgb(60, 60, 60)" stroke-width="1px" opacity="0.25"></line><line x1="520.625" y1="0" x2="520.625" y2="378" fill="rgb(0, 0, 0)" stroke="rgb(60, 60, 60)" stroke-width="1px" opacity="0.25"></line><line x1="595" y1="0" x2="595" y2="378" fill="rgb(0, 0, 0)" stroke="rgb(60, 60, 60)" stroke-width="1px" opacity="0.25"></line><line x1="669.375" y1="0" x2="669.375" y2="378" fill="rgb(0, 0, 0)" stroke="rgb(60, 60, 60)" stroke-width="1px" opacity="0.25"></line><line x1="743.75" y1="0" x2="743.75" y2="378" fill="rgb(0, 0, 0)" stroke="rgb(60, 60, 60)" stroke-width="1px" opacity="0.25"></line><line x1="818.125" y1="0" x2="818.125" y2="378" fill="rgb(0, 0, 0)" stroke="rgb(60, 60, 60)" stroke-width="1px" opacity="0.25"></line><line x1="892.5" y1="0" x2="892.5" y2="378" fill="rgb(0, 0, 0)" stroke="rgb(60, 60, 60)" stroke-width="1px" opacity="0.25"></line></g><g><line x1="0" y1="378" x2="892.5" y2="378" fill="rgb(0, 0, 0)" stroke="rgb(60, 60, 60)" stroke-width="1px" opacity="0.25"></line><line x1="0" y1="340.2" x2="892.5" y2="340.2" fill="rgb(0, 0, 0)" stroke="rgb(60, 60, 60)" stroke-width="1px" opacity="0.25"></line><line x1="0" y1="302.4" x2="892.5" y2="302.4" fill="rgb(0, 0, 0)" stroke="rgb(60, 60, 60)" stroke-width="1px" opacity="0.25"></line><line x1="0" y1="264.6" x2="892.5" y2="264.6" fill="rgb(0, 0, 0)" stroke="rgb(60, 60, 60)" stroke-width="1px" opacity="0.25"></line><line x1="0" y1="226.79999999999998" x2="892.5" y2="226.79999999999998" fill="rgb(0, 0, 0)" stroke="rgb(60, 60, 60)" stroke-width="1px" opacity="0.25"></line><line x1="0" y1="189" x2="892.5" y2="189" fill="rgb(0, 0, 0)" stroke="rgb(60, 60, 60)" stroke-width="1px" opacity="0.25"></line><line x1="0" y1="151.20000000000002" x2="892.5" y2="151.20000000000002" fill="rgb(0, 0, 0)" stroke="rgb(60, 60, 60)" stroke-width="1px" opacity="0.25"></line><line x1="0" y1="113.40000000000003" x2="892.5" y2="113.40000000000003" fill="rgb(0, 0, 0)" stroke="rgb(60, 60, 60)" stroke-width="1px" opacity="0.25"></line><line x1="0" y1="75.59999999999997" x2="892.5" y2="75.59999999999997" fill="rgb(0, 0, 0)" stroke="rgb(60, 60, 60)" stroke-width="1px" opacity="0.25"></line><line x1="0" y1="37.80000000000001" x2="892.5" y2="37.80000000000001" fill="rgb(0, 0, 0)" stroke="rgb(60, 60, 60)" stroke-width="1px" opacity="0.25"></line><line x1="0" y1="0" x2="892.5" y2="0" fill="rgb(0, 0, 0)" stroke="rgb(60, 60, 60)" stroke-width="1px" opacity="0.25"></line></g></g></g><g><g><line x1="0" y1="340.2" x2="892.5" y2="340.2" fill="rgb(0, 0, 0)" stroke="rgb(153, 153, 153)" stroke-width="1.5px"></line></g></g><g><g><line x1="74.375" y1="0" x2="74.375" y2="378" fill="rgb(0, 0, 0)" stroke="rgb(153, 153, 153)" stroke-width="1.5px"></line></g></g><g><g><g><g><g><path stroke="rgb(255, 112, 67)" stroke-width="2px" d="M75.87499500000001,340.2L77.37142,340.2L78.87111750000001,339.81428570853814L80.36620375,339.99154411454083L81.906733125,340.0819569725644L83.4306025,340.13148496138507L84.95387687499999,339.84857119758664L86.49991,339.99154411454083L88.030175625,340.0757753252598L89.56103625,340.1257674785901L91.109449375,336.8170565090673L92.6203775,337.87012620444574L94.14640375,337.89490805343326L95.68187562499999,338.5150307815461L97.19577875,335.86137068569866L98.71406999999999,334.2699733886533L100.251178125,333.315422387497L101.78427,332.74279520440854L103.302040625,333.60892993745756L104.81163,332.9189326629832L106.342565,332.5049504441846L107.86293875,331.34935512846613L109.390155,331.56321469389553L110.92525499999999,331.6915293522433L112.428894375,331.4661168262961L113.9689775,331.3308697208753L115.511589375,330.64492120256125L117.051375,330.2333525408926L118.57301312499999,330.59121151219546L120.08126375,329.89872675422697L121.58252312500001,330.39043597356306L123.07084125,328.266261415082L124.58437250000001,327.59655696126504L126.082359375,326.2875344276451L127.573875625,326.7117205196836L129.1039925,327.2686322454566L130.60517750000002,325.48597948043727L132.12317124999998,325.32358768765937L133.633504375,325.8309527579215L135.17105875,325.83297172685343L136.71671999999998,322.8101827452965L138.239548125,324.0205097198581L139.74088187499999,322.9323058316007L141.28379125,321.37218364288566L142.785199375,320.1337098972116L144.32483625,321.2050260825893L145.874588125,322.45261593799137L147.3687075,321.6891698511688L148.87755312500002,322.4407017665159L150.37747375,320.7748207715049L151.90900374999998,322.19449275130097L153.43859999999998,317.6030953623761L154.98537687500001,320.2914575058215L156.512295625,321.6020743592987L158.04642875,316.6428449039672L159.54939875000002,319.11050708657683L161.069698125,317.86950410775023L162.61364875,318.33450260884575L164.113569375,319.8231012769165L165.636918125,319.8090606219543L167.153275625,321.0102365173682L168.65728687499998,319.311742198812L170.173793125,319.8046456076783L171.692381875,321.3099872204115L173.1815925,314.95559262063796L174.686645,312.352556149165L176.235206875,315.931533689499L177.74167250000002,315.3573199253083L179.29016,317.12959181098944L180.78688250000002,317.28575508659367L182.31945375,315.26265290776064L183.85812375,313.14159174465635L185.34607,313.3809550467938L186.86354312499998,315.64137317227187L188.36792625,318.207223614972L189.8689625,313.6987338805921L191.35839625,304.3408406167464L192.84656562499998,306.28610465843894L194.37809562500001,311.6868626508678L195.869611875,313.7177178789118L197.37778812500002,311.60983130412933L198.89555875,309.74029849408646L200.389380625,298.941779384843L201.898895625,290.3458670541236L203.428640625,296.981919944083L204.96679,302.4755516780587L206.483965625,305.16693129522633L208.0045625,310.4105584887447L209.51563937499998,311.43993538163795L211.009981875,313.87196122898274L212.52671125,314.4239768815852L214.02380562500002,312.94078584056L215.55057562500002,312.0508712159449L217.041348125,315.1457225853714L218.57607625,313.0714335512228L220.10195375,308.19806070751594L221.618385625,309.5076365687051L223.12336374999998,310.5957817970275L224.64329124999998,310.3414690782165L226.15667375,307.16488144692994L227.673998125,310.70212872396235L229.169828125,307.07887752276855L230.6782275,298.85692680205227L232.19979124999998,305.41495622542686L233.702091875,306.3257731584739L235.21249937499996,309.5938636066933L236.76210250000003,308.22831816401595L238.292814375,308.3161914751918L239.83862437500002,309.27611459672397L241.383244375,310.15446890222995L242.92808749999998,307.9598819181202L244.45924562500002,304.8287285740899L245.976495625,298.4140365676717L247.513380625,293.0532213638208L249.035093125,296.1871333950747L250.5268325,296.2530794602626L252.051891875,298.4094479645487L253.569885625,300.0056687787292L255.098143125,306.406601123042L256.64030875,302.6871612506074L258.14833625,304.3866964619733L259.65071125000003,280.0048173004018L261.14445874999996,279.5884892266766L262.633595,286.5962941127882L264.1481675,287.7769770444551L265.669508125,292.1141862266731L267.17656875,282.9229128895683L268.6957525,278.617747733741L270.18593000000004,288.7354480634624L271.68778437500004,286.64126883807745L273.203695625,286.2919618796287L274.746530625,285.779976550995L276.278655625,270.05038708416146L277.774039375,266.3582322504969L279.271803125,282.8917387735159L280.76384,288.2758426873273L282.29581625,275.47910445883196L283.807190625,280.1994626752992L285.324886875,278.193276451615L286.82079125,277.5943670245335L288.33938,278.74701992632896L289.886603125,276.71701137901516L291.39901875,284.8734074041913L292.93582937499997,289.4648438657326L294.45709562499997,296.7557057426573L295.96125562500004,297.8038231572033L297.49680187499996,211.34149158719305L299.04030625,243.83369437553364L300.55547375000003,266.6554172021024L302.07726062499995,283.9772503212614L303.6067825,280.1575507695391L305.147609375,288.14732988494126L306.65868625,277.8211973541825L308.16835000000003,271.32311956607396L309.65882500000004,281.0322714512533L311.149969375,280.20496171718753L312.64855125,285.4541776070947L314.16877625,284.6725065642568L315.67843999999997,286.3203033617719L317.218820625,287.006581728672L318.7275175,282.8823501907676L320.25108937500005,281.31500896089614L321.75115875,274.6290053765377L323.287225625,283.0158029375315L324.827531875,281.9998814741278L326.349393125,282.90232859608557L327.875121875,288.28219658086914L329.41892375,266.7133179485215L330.95781687500005,257.7031913458951L332.46770375,248.66831596110154L334.009423125,190.6297918837898L335.52540875,208.72667455349168L337.059690625,156.0808070392239L338.571585625,204.62928364675213L340.09642187500003,225.2911690344868L341.5957475,240.71230026712763L343.127500625,157.7329847745344L344.62162,204.10859028793843L346.12087125,234.0507530191986L347.66846625,171.57764950439028L349.18980687500004,166.45058970263418L350.71337875,192.70715324479826L352.25889125000003,219.3474925236612L353.769373125,174.24689666776115L355.28915187499996,214.9241380006567L356.794353125,233.88728222361178L358.33949375,240.42677048773152L359.859941875,245.56006229263892L361.394446875,261.64323795236555L362.92709249999996,237.42434392498382L364.431326875,195.9794086621192L365.97594687500003,205.58604635083597L367.490519375,239.4732280988927L369.039304375,192.9751345522067L370.545993125,230.69708073132404L372.05543375,256.3542484387944L373.558031875,221.5501479097122L375.06583624999996,166.1940887458273L376.58011125,214.0236538242786L378.098625625,213.38859344813162L379.60300875,232.96595549209675L381.110664375,231.7091721416936L382.61311374999997,250.3087038617984L384.13995812499996,248.46522231707905L385.6549025,253.70953454381188L387.14522875,256.5537207262871L388.68806375,229.2298312822078L390.17883625,246.7042999228891L391.72330750000003,223.32017880016903L393.226649375,215.94250843366586L394.7429325,240.84870563698175L396.253265625,183.82122338218906L397.773193125,223.39033431770454L399.272295625,164.8790028977516L400.8143125,205.37220116186873L402.311406875,220.89852127390347L403.81482312500003,227.19031334112432L405.32902375000003,246.38778685111015L406.86471875,259.7206721106661L408.41276,203.61160095927076L409.908961875,221.3541611523447L411.44681375,241.97889784497127L412.97120375000003,196.59533870698274L414.47290937500003,217.44680207062518L416.01760375000003,246.89208124237513L417.51462375,264.2568490338162L419.05002125,262.27730999707194L420.540273125,270.4639862866343L422.03736749999996,277.4927914835895L423.573136875,269.31167489015365L425.117459375,286.1758050782878L426.657245,216.76308189340818L428.20528625000003,235.8978491360449L429.703124375,205.94990717449807L431.2277375,235.1555431511344L432.72163375,208.83092473711616L434.220885,245.65375541905192L435.77071125,161.60505555856008L437.30581125,220.0398327583538L438.8437375,161.65909734788337L440.361805625,130.56185379447223L441.90583062499996,178.12911227668332L443.422039375,211.5078685195745L444.93966125000003,224.88231995818023L446.46866250000005,209.62219428203704L448.01789375,233.73011599244L449.547118125,236.70366844189957L451.036254375,164.39980567939756L452.578196875,167.5870811005096L454.07662999999997,169.80184750674132L455.59849125000005,216.7931085040448L457.0876275,225.63426625599132L458.632321875,169.8541643678526L460.15262125,124.59249862071155L461.68623375000004,138.25949917242696L463.227506875,194.84369950345618L464.73962500000005,149.2630220092026L466.28208812500003,119.49541781977939L467.830724375,170.58205011508542L469.31881937500003,200.3268289154868L470.830416875,225.4312979260743L472.37332625,195.7387787556446L473.88760125,222.0736684069512L475.40849562499994,164.3913987370418L476.93251375000006,140.97083924222508L478.475571875,188.60810239177056L480.020043125,152.77926258862678L481.56942312500007,186.6211563996116L483.06443500000006,231.42069383976698L484.5540175,237.43481745742463L486.09402625,163.62889047445475L487.622209375,184.36133428467286L489.13685625000005,157.18639941723927L490.667568125,212.85263907356136L492.17462874999995,181.84118229057236L493.69820062499997,207.6871105279079L495.24438250000003,221.6826674703092L496.78580437500005,187.13919932862103L498.332953125,210.86592075073708L499.82595687500003,167.6459536040067L501.332199375,184.0499733159685L502.8282525,153.97558283601663L504.3669225,198.52775085517445L505.9032125,198.9502493595402L507.44485749999996,233.072549327333L508.95102562500006,178.2483319035287L510.44916125,148.07540029568167L511.968419375,164.14283902384454L513.47354625,191.62490399108893L515.0031425,157.00854124108892L516.5215825,199.44032532143558L518.0506581249999,166.53619519286136L519.5418768750001,192.45611826928126L521.031013125,148.13286865443987L522.580690625,113.978918885535L524.109915,95.90574671706321L525.6566175,88.69064572310901L527.17282625,148.7727885874299L528.699745,127.36606853820012L530.2365556249999,149.90283881579114L531.785489375,183.08090386625696L533.29493,213.5717428965364L534.7886775000001,236.40224631470406L536.3321075,233.77094663525799L537.8285324999999,153.2657656740259L539.322949375,215.03625882763333L540.8128293750001,235.16415645014445L542.3627299999999,217.30329617721554L543.888384375,200.2363788598938L545.40511375,144.93862962306517L546.927346875,138.97598008096804L548.4553812500001,188.92318689501639L549.943625,207.0979121370098L551.4405706250001,181.10994497507696L552.9534325,197.2691675618284L554.45000625,150.11350053709705L555.95386875,193.1865014758227L557.483241875,219.63510146227583L559.029498125,165.9522585702366L560.522055625,158.2369539885775L562.0527675,153.30537008601758L563.579016875,108.31282666586839L566.370459375,142.40209715308546L567.8643556249999,203.98205771506906L569.367623125,249.09483491743256L570.8648662500001,183.32570325758843L572.3882150000001,208.57782310811754L573.89252375,132.70669386487052L575.402559375,176.69441747248675L576.93446125,136.55904586923424L579.135738125,158.14022982866945L580.6845975,137.5225390507661L582.2049712500001,169.30232573758857L583.7517481250001,134.24059313542423L585.2852118750001,163.70435588125457L586.8058831249999,180.47541583588162L588.3059525,137.01324950152895L589.8526549999999,146.61914739378844L591.392886875,116.69948843627304L592.9044843749999,96.02608844750603L594.396893125,82.11004845424583L595.9499175,60.757226765418636L598.728939375,79.09273721281562L600.2398675000001,64.99484002056045L604.009266875,53.814508626594034L605.548085625,47.71110056169863L607.0375937499999,39.51305572276135L608.562355625,57.27422881939896L612.521188125,61.580537291639416L614.014043125,56.90671776072577L615.519690625,132.7264318099999L617.0581375,101.71105677887107L618.569363125,103.96743637445155L620.071143125,76.2908572104131L624.0261825,99.60171201911896L626.070528125,92.7226318257292L627.5713412499999,74.0799744811797L629.064716875,93.73918238157893L630.6053949999999,85.2739048146895L634.421725,72.02994750307153L638.293985,102.18596850184292L639.8034256249999,83.0843834082346L641.294049375,100.95622889137633L645.1425837500001,95.65213272056798L646.68274125,84.00247732521188L648.213304375,61.28788178086933L657.810654375,50.98553137565051L659.298898125,50.24731882539032L660.792943125,61.900391295234215L662.3055075000001,61.0298393913983L663.803345625,54.15710132771011L675.962170625,68.78226079662602L677.466925625,66.36855417084672L685.75654,53.73152788825024L687.5894375,66.712521347208L692.3513712499999,52.12351280832479L693.8640099999999,41.55571229925272L695.408109375,56.68542737955164L696.94566375,86.931256427731L698.439485625,78.7699515495097L699.96558625,70.24436631544802L705.7958425,66.03622440352666L715.0950975000001,60.18493233498708L716.5904812499999,55.46456401525006L720.48713625,73.80033725558559L721.998659375,88.43060350691576L725.8626637499999,139.54476325771395L727.396425,117.89805564749952L731.3070624999999,92.51163569562857L732.825279375,86.65417911024821L736.7947475,80.11570515902002L740.5744106249999,64.701423095412L744.313539375,92.34565616437612L745.824988125,76.27299831288349L748.966141875,68.44379898773008L750.47335125,53.76708169976695L752.014029375,38.91305132698915L755.036629375,44.515830796193484L756.5468137500001,77.210300784845L758.0492631249999,61.44618047090705L759.5633893749999,56.826103668286464L763.355621875,51.93726681522969L764.8918375000001,87.10636008913775L766.423739375,79.17742066774053L767.947831875,74.42005701490211L771.83057875,70.96083651607017L775.60525875,72.81650190964211L777.117228125,73.92990114578527L778.64987375,67.94513838034226L782.810039375,74.33347841394755L784.32676875,77.56169166262634L785.858819375,60.14501499757574L787.37049125,70.56061361280331L788.894806875,68.64517047481087L790.41837875,151.5631022848865L791.92834,111.80346598518975L793.430640625,169.29328016789606L794.9801693750001,122.4415727149954L796.478676875,96.44733901473944L798.02753625,78.1292057159726L799.575056875,66.83591881532573L801.0731925,69.13194667493764L804.90529,79.58156339070473L806.42268875,66.19533342016501L807.956821875,54.53480466635676L809.4509412499999,49.95768510694302L810.95539875,134.60501221773023L812.45271625,98.60461194489596L816.45141375,84.5643717811954L817.992835625,87.0266230687173" style="fill: none;" fill="none"></path></g></g></g></g><g opacity="0.2"><g><g><g><path stroke="rgb(255, 112, 67)" stroke-width="2px" d="M75.87499500000001,340.2L77.37142,340.2L78.87111750000001,339.44399998873473L80.36620375,340.2L81.906733125,340.2L83.4306025,340.2L84.95387687499999,339.44399998873473L86.49991,340.2L88.030175625,340.2L89.56103625,340.2L91.109449375,331.88399981975556L92.6203775,339.44399998873473L94.14640375,337.9319999098778L95.68187562499999,339.44399998873473L97.19577875,331.88399981975556L98.71406999999999,331.88399981975556L100.251178125,331.88399981975556L101.78427,331.88399981975556L103.302040625,334.90800009012224L104.81163,331.88399981975556L106.342565,331.88399981975556L107.86293875,329.61600018024444L109.390155,331.88399981975556L110.92525499999999,331.88399981975556L112.428894375,331.12799963951113L113.9689775,331.12799963951113L115.511589375,329.61600018024444L117.051375,329.61600018024444L118.57301312499999,331.12799963951113L120.08126375,328.86L121.58252312500001,331.12799963951113L123.07084125,325.08L124.58437250000001,326.5920003604889L126.082359375,324.3240007209778L127.573875625,327.3479996395111L129.1039925,328.10399981975553L130.60517750000002,322.81200036048887L132.12317124999998,325.08L133.633504375,326.5920003604889L135.17105875,325.83600018024447L136.71671999999998,318.27599927902224L138.239548125,325.83600018024447L139.74088187499999,321.3L141.28379125,319.0320003604889L142.785199375,318.27599927902224L144.32483625,322.81200036048887L145.874588125,324.3240007209778L147.3687075,320.5440007209778L148.87755312500002,323.56799963951113L150.37747375,318.27599927902224L151.90900374999998,324.3240007209778L153.43859999999998,310.7159992790222L154.98537687500001,324.3240007209778L156.512295625,323.56799963951113L158.04642875,309.2040007209778L159.54939875000002,322.81200036048887L161.069698125,316.0079996395111L162.61364875,319.0320003604889L164.113569375,322.0559992790222L165.636918125,319.7879996395111L167.153275625,322.81200036048887L168.65728687499998,316.7640007209778L170.173793125,320.5440007209778L171.692381875,323.56799963951113L173.1815925,305.4240007209778L174.686645,308.44800144195557L176.235206875,321.3L177.74167250000002,314.4959992790222L179.29016,319.7879996395111L180.78688250000002,317.52L182.31945375,312.2279996395111L183.85812375,309.96000000000004L185.34607,313.74L186.86354312499998,319.0320003604889L188.36792625,322.0559992790222L189.8689625,306.9359992790222L191.35839625,290.3040007209778L192.84656562499998,309.2040007209778L194.37809562500001,319.7879996395111L195.869611875,316.7640007209778L197.37778812500002,308.44800144195557L198.89555875,306.9359992790222L200.389380625,282.7440007209778L201.898895625,277.45199855804447L203.428640625,306.9359992790222L204.96679,310.7159992790222L206.483965625,309.2040007209778L208.0045625,318.27599927902224L209.51563937499998,312.98400072097775L211.009981875,317.52L212.52671125,315.25200036048886L214.02380562500002,310.7159992790222L215.55057562500002,310.7159992790222L217.041348125,319.7879996395111L218.57607625,309.96000000000004L220.10195375,300.88800144195557L221.618385625,311.4720003604889L223.12336374999998,312.2279996395111L224.64329124999998,309.96000000000004L226.15667375,302.4L227.673998125,316.0079996395111L229.169828125,301.6440007209778L230.6782275,286.52400072097777L232.19979124999998,315.25200036048886L233.702091875,307.6919985580444L235.21249937499996,314.4959992790222L236.76210250000003,306.18L238.292814375,308.44800144195557L239.83862437500002,310.7159992790222L241.383244375,311.4720003604889L242.92808749999998,304.66800144195554L244.45924562500002,300.1319985580444L245.976495625,288.79199855804444L247.513380625,285.0119985580444L249.035093125,300.88800144195557L250.5268325,296.35199855804444L252.051891875,301.6440007209778L253.569885625,302.4L255.098143125,316.0079996395111L256.64030875,297.1080014419556L258.14833625,306.9359992790222L259.65071125000003,243.43199855804443L261.14445874999996,278.9639971160889L262.633595,297.1080014419556L264.1481675,289.54800144195553L265.669508125,298.62L267.17656875,269.13600288391115L268.6957525,272.15999999999997L270.18593000000004,303.91199855804444L271.68778437500004,283.5L273.203695625,285.76800144195556L274.746530625,285.0119985580444L276.278655625,246.45600288391114L277.774039375,260.82L279.271803125,307.6919985580444L280.76384,296.35199855804444L282.29581625,256.28399711608887L283.807190625,287.28L285.324886875,275.1839971160889L286.82079125,276.69600288391115L288.33938,280.47599927902223L289.886603125,273.67199855804444L291.39901875,297.1080014419556L292.93582937499997,296.35199855804444L294.45709562499997,307.6919985580444L295.96125562500004,299.3759992790222L297.49680187499996,81.64799423217772L299.04030625,292.57199855804447L300.55547375000003,300.88800144195557L302.07726062499995,309.96000000000004L303.6067825,274.42800144195553L305.147609375,300.1319985580444L306.65868625,262.33199855804446L308.16835000000003,261.57600288391114L309.65882500000004,295.5959992790222L311.149969375,278.9639971160889L312.64855125,293.32800144195556L314.16877625,283.5L315.67843999999997,288.79199855804444L317.218820625,288.03599927902223L318.7275175,276.69600288391115L320.25108937500005,278.9639971160889L321.75115875,264.6L323.287225625,295.5959992790222L324.827531875,280.47599927902223L326.349393125,284.2559992790222L327.875121875,296.35199855804444L329.41892375,234.35999999999999L330.95781687500005,244.18800144195555L332.46770375,235.11600288391114L334.009423125,103.57200576782225L335.52540875,235.87199855804442L337.059690625,77.11200576782227L338.571585625,277.45199855804447L340.09642187500003,256.28399711608887L341.5957475,263.8439971160889L343.127500625,33.2640115356445L344.62162,273.67199855804444L346.12087125,278.9639971160889L347.66846625,77.86799423217775L349.18980687500004,158.76000000000002L350.71337875,232.09199855804442L352.25889125000003,259.3080014419556L353.769373125,106.59600288391113L355.28915187499996,275.94L356.794353125,262.33199855804446L358.33949375,250.23600288391114L359.859941875,253.26L361.394446875,285.76800144195556L362.92709249999996,201.09600288391113L364.431326875,133.81200576782228L365.97594687500003,219.99600288391113L367.490519375,290.3040007209778L369.039304375,123.22799423217774L370.545993125,287.28L372.05543375,294.84000000000003L373.558031875,169.34399711608887L375.06583624999996,83.15999999999997L376.58011125,285.76800144195556L378.098625625,212.43600288391113L379.60300875,262.33199855804446L381.110664375,229.82399711608886L382.61311374999997,278.20800144195556L384.13995812499996,245.70000000000002L385.6549025,261.57600288391114L387.14522875,260.82L388.68806375,188.24399711608885L390.17883625,272.9160028839111L391.72330750000003,188.24399711608885L393.226649375,204.87600288391113L394.7429325,278.20800144195556L396.253265625,98.28000000000003L397.773193125,282.7440007209778L399.272295625,77.11200576782227L400.8143125,266.11199855804443L402.311406875,244.18800144195555L403.81482312500003,236.62800144195558L405.32902375000003,275.1839971160889L406.86471875,279.72L408.41276,119.44799423217773L409.908961875,247.96800144195555L411.44681375,272.9160028839111L412.97120375000003,128.51999999999998L414.47290937500003,248.72399711608887L416.01760375000003,291.06L417.51462375,290.3040007209778L419.05002125,259.3080014419556L420.540273125,282.7440007209778L422.03736749999996,288.03599927902223L423.573136875,257.03999999999996L425.117459375,311.4720003604889L426.657245,112.64399711608888L428.20528625000003,264.6L429.703124375,161.02799423217772L431.2277375,278.9639971160889L432.72163375,169.34399711608887L434.220885,300.88800144195557L435.77071125,35.532005767822284L437.30581125,307.6919985580444L438.8437375,74.08799423217772L440.361805625,83.91598846435545L441.90583062499996,249.48L443.422039375,261.57600288391114L444.93966125000003,244.94399711608887L446.46866250000005,186.73200576782227L448.01789375,269.8919985580444L449.547118125,241.16399711608886L451.036254375,55.94401153564456L452.578196875,172.36799423217775L454.07662999999997,173.12399711608887L455.59849125000005,287.28L457.0876275,238.89600288391114L458.632321875,86.18401153564452L460.15262125,56.69999999999999L461.68623375000004,158.76000000000002L463.227506875,279.72L464.73962500000005,80.8920057678223L466.28208812500003,74.84401153564454L467.830724375,247.21199855804443L469.31881937500003,244.94399711608887L470.830416875,263.08800144195556L472.37332625,151.20000000000002L473.88760125,261.57600288391114L475.40849562499994,77.86799423217775L476.93251375000006,105.84000000000003L478.475571875,260.0639971160889L480.020043125,99.03600288391112L481.56942312500007,237.38399711608886L483.06443500000006,298.62L484.5540175,246.45600288391114L486.09402625,52.920000000000016L487.622209375,215.46L489.13685625000005,116.42399711608886L490.667568125,296.35199855804444L492.17462874999995,135.32399711608886L493.69820062499997,246.45600288391114L495.24438250000003,242.67600288391114L496.78580437500005,135.32399711608886L498.332953125,246.45600288391114L499.82595687500003,102.81600288391115L501.332199375,208.65600288391113L502.8282525,108.86399711608885L504.3669225,265.3560028839111L505.9032125,199.58399711608885L507.44485749999996,284.2559992790222L508.95102562500006,96.01200576782225L510.44916125,102.81600288391115L511.968419375,188.24399711608885L513.47354625,232.84800144195557L515.0031425,105.08399711608888L516.5215825,263.08800144195556L518.0506581249999,117.18L519.5418768750001,231.33600288391114L521.031013125,81.64799423217772L522.580690625,62.747994232177746L524.109915,68.7959884643555L525.6566175,77.86799423217775L527.17282625,238.89600288391114L528.699745,95.25598846435548L530.2365556249999,183.70799423217775L531.785489375,232.84800144195557L533.29493,259.3080014419556L534.7886775000001,270.64800144195556L536.3321075,229.82399711608886L537.8285324999999,32.50799423217774L539.322949375,307.6919985580444L540.8128293750001,265.3560028839111L542.3627299999999,190.51200576782227L543.888384375,174.63600288391112L545.40511375,61.99200576782226L546.927346875,130.03200576782228L548.4553812500001,263.8439971160889L549.943625,234.35999999999999L551.4405706250001,142.12799423217774L552.9534325,221.50800144195557L554.45000625,79.38L555.95386875,257.7960028839111L557.483241875,259.3080014419556L559.029498125,85.42799423217775L560.522055625,146.66399711608886L562.0527675,145.9079942321777L563.579016875,40.8240115356445L566.370459375,193.53600288391112L567.8643556249999,296.35199855804444L569.367623125,316.7640007209778L570.8648662500001,84.67200576782227L572.3882150000001,246.45600288391114L573.89252375,18.900000000000034L575.402559375,242.67600288391114L576.93446125,76.35598846435545L579.135738125,190.51200576782227L580.6845975,106.59600288391113L582.2049712500001,216.97200576782228L583.7517481250001,81.64799423217772L585.2852118750001,207.9L586.8058831249999,205.63200576782225L588.3059525,71.82L589.8526549999999,161.02799423217772L591.392886875,71.82L592.9044843749999,65.01598846435547L594.396893125,61.2359884643555L595.9499175,28.727994232177764L598.728939375,106.59600288391113L600.2398675000001,43.84799423217777L604.009266875,37.04401153564453L605.548085625,38.55598846435544L607.0375937499999,27.215988464355462L608.562355625,83.91598846435545L612.521188125,68.04000000000002L614.014043125,49.89598846435547L615.519690625,246.45600288391114L617.0581375,55.18799423217774L618.569363125,107.35200576782228L620.071143125,34.775988464355464L624.0261825,134.56799423217774L626.070528125,82.40401153564454L627.5713412499999,46.11598846435544L629.064716875,123.22799423217774L630.6053949999999,72.57598846435548L634.421725,52.16401153564453L638.293985,147.42000000000002L639.8034256249999,54.43200576782226L641.294049375,127.76399711608889L645.1425837500001,87.69598846435548L646.68274125,66.52799423217772L648.213304375,27.215988464355462L657.810654375,35.532005767822284L659.298898125,49.139999999999986L660.792943125,79.38L662.3055075000001,59.724011535644536L663.803345625,43.84799423217777L675.962170625,90.71999999999997L677.466925625,62.747994232177746L685.75654,34.775988464355464L687.5894375,86.18401153564452L692.3513712499999,30.24000000000001L693.8640099999999,25.704011535644497L695.408109375,79.38L696.94566375,132.29999999999998L698.439485625,66.52799423217772L699.96558625,57.45598846435547L705.7958425,59.724011535644536L715.0950975000001,51.407994232177714L716.5904812499999,48.38401153564456L720.48713625,101.30399711608885L721.998659375,110.3760028839111L725.8626637499999,216.21600288391113L727.396425,85.42799423217775L731.3070624999999,54.43200576782226L732.825279375,77.86799423217775L736.7947475,70.30799423217775L740.5744106249999,41.579999999999984L744.313539375,133.81200576782228L745.824988125,52.16401153564453L748.966141875,56.69999999999999L750.47335125,31.752005767822254L752.014029375,16.63200576782225L755.036629375,52.920000000000016L756.5468137500001,126.25200576782228L758.0492631249999,37.80000000000001L759.5633893749999,49.89598846435547L763.355621875,44.60401153564453L764.8918375000001,139.85999999999999L766.423739375,67.28401153564454L767.947831875,67.28401153564454L771.83057875,65.77200576782224L775.60525875,75.59999999999997L777.117228125,75.59999999999997L778.64987375,58.967994232177716L782.810039375,83.91598846435545L784.32676875,82.40401153564454L785.858819375,34.01999999999998L787.37049125,86.18401153564452L788.894806875,65.77200576782224L790.41837875,275.94L791.92834,52.16401153564453L793.430640625,255.52800144195555L794.9801693750001,52.16401153564453L796.478676875,57.45598846435547L798.02753625,50.65200576782223L799.575056875,49.89598846435547L801.0731925,72.57598846435548L804.90529,95.25598846435548L806.42268875,46.11598846435544L807.956821875,37.04401153564453L809.4509412499999,43.092005767822286L810.95539875,261.57600288391114L812.45271625,44.60401153564453L816.45141375,63.504011535644565L817.992835625,90.71999999999997" style="fill: none;" fill="none"></path></g></g></g></g></g></g><g transform="translate(60, 378)" clip-path="url(#clip_1)"><clipPath id="clip_1"><rect width="892" height="22"></rect></clipPath><g><g><line x1="0" y1="0" x2="0" y2="5" style="visibility: inherit;" fill="rgb(0, 0, 0)" stroke="rgb(204, 204, 204)" stroke-width="1px"></line><line x1="74.375" y1="0" x2="74.375" y2="5" style="visibility: inherit;" fill="rgb(0, 0, 0)" stroke="rgb(204, 204, 204)" stroke-width="1px"></line><line x1="148.75" y1="0" x2="148.75" y2="5" style="visibility: inherit;" fill="rgb(0, 0, 0)" stroke="rgb(204, 204, 204)" stroke-width="1px"></line><line x1="223.125" y1="0" x2="223.125" y2="5" style="visibility: inherit;" fill="rgb(0, 0, 0)" stroke="rgb(204, 204, 204)" stroke-width="1px"></line><line x1="297.5" y1="0" x2="297.5" y2="5" style="visibility: inherit;" fill="rgb(0, 0, 0)" stroke="rgb(204, 204, 204)" stroke-width="1px"></line><line x1="371.875" y1="0" x2="371.875" y2="5" style="visibility: inherit;" fill="rgb(0, 0, 0)" stroke="rgb(204, 204, 204)" stroke-width="1px"></line><line x1="446.25" y1="0" x2="446.25" y2="5" style="visibility: inherit;" fill="rgb(0, 0, 0)" stroke="rgb(204, 204, 204)" stroke-width="1px"></line><line x1="520.625" y1="0" x2="520.625" y2="5" style="visibility: inherit;" fill="rgb(0, 0, 0)" stroke="rgb(204, 204, 204)" stroke-width="1px"></line><line x1="595" y1="0" x2="595" y2="5" style="visibility: inherit;" fill="rgb(0, 0, 0)" stroke="rgb(204, 204, 204)" stroke-width="1px"></line><line x1="669.375" y1="0" x2="669.375" y2="5" style="visibility: inherit;" fill="rgb(0, 0, 0)" stroke="rgb(204, 204, 204)" stroke-width="1px"></line><line x1="743.75" y1="0" x2="743.75" y2="5" style="visibility: inherit;" fill="rgb(0, 0, 0)" stroke="rgb(204, 204, 204)" stroke-width="1px"></line><line x1="818.125" y1="0" x2="818.125" y2="5" style="visibility: inherit;" fill="rgb(0, 0, 0)" stroke="rgb(204, 204, 204)" stroke-width="1px"></line><line x1="892.5" y1="0" x2="892.5" y2="5" style="visibility: inherit;" fill="rgb(0, 0, 0)" stroke="rgb(204, 204, 204)" stroke-width="1px"></line></g><g transform="translate(0, 8)"><text x="0" y="0" dx="0em" dy="0.95em" style="text-anchor: middle; visibility: hidden; font-family: &quot;Helvetica Neue&quot;, sans-serif; font-size: 12px; font-weight: 200;" fill="rgb(50, 49, 63)" stroke="none" stroke-width="1px">-1.000M</text><text x="74.375" y="0" dx="0em" dy="0.95em" style="text-anchor: middle; visibility: inherit; font-family: &quot;Helvetica Neue&quot;, sans-serif; font-size: 12px; font-weight: 200;" fill="rgb(50, 49, 63)" stroke="none" stroke-width="1px">0.000</text><text x="148.75" y="0" dx="0em" dy="0.95em" style="text-anchor: middle; visibility: inherit; font-family: &quot;Helvetica Neue&quot;, sans-serif; font-size: 12px; font-weight: 200;" fill="rgb(50, 49, 63)" stroke="none" stroke-width="1px">1.000M</text><text x="223.125" y="0" dx="0em" dy="0.95em" style="text-anchor: middle; visibility: inherit; font-family: &quot;Helvetica Neue&quot;, sans-serif; font-size: 12px; font-weight: 200;" fill="rgb(50, 49, 63)" stroke="none" stroke-width="1px">2.000M</text><text x="297.5" y="0" dx="0em" dy="0.95em" style="text-anchor: middle; visibility: inherit; font-family: &quot;Helvetica Neue&quot;, sans-serif; font-size: 12px; font-weight: 200;" fill="rgb(50, 49, 63)" stroke="none" stroke-width="1px">3.000M</text><text x="371.875" y="0" dx="0em" dy="0.95em" style="text-anchor: middle; visibility: inherit; font-family: &quot;Helvetica Neue&quot;, sans-serif; font-size: 12px; font-weight: 200;" fill="rgb(50, 49, 63)" stroke="none" stroke-width="1px">4.000M</text><text x="446.25" y="0" dx="0em" dy="0.95em" style="text-anchor: middle; visibility: inherit; font-family: &quot;Helvetica Neue&quot;, sans-serif; font-size: 12px; font-weight: 200;" fill="rgb(50, 49, 63)" stroke="none" stroke-width="1px">5.000M</text><text x="520.625" y="0" dx="0em" dy="0.95em" style="text-anchor: middle; visibility: inherit; font-family: &quot;Helvetica Neue&quot;, sans-serif; font-size: 12px; font-weight: 200;" fill="rgb(50, 49, 63)" stroke="none" stroke-width="1px">6.000M</text><text x="595" y="0" dx="0em" dy="0.95em" style="text-anchor: middle; visibility: inherit; font-family: &quot;Helvetica Neue&quot;, sans-serif; font-size: 12px; font-weight: 200;" fill="rgb(50, 49, 63)" stroke="none" stroke-width="1px">7.000M</text><text x="669.375" y="0" dx="0em" dy="0.95em" style="text-anchor: middle; visibility: inherit; font-family: &quot;Helvetica Neue&quot;, sans-serif; font-size: 12px; font-weight: 200;" fill="rgb(50, 49, 63)" stroke="none" stroke-width="1px">8.000M</text><text x="743.75" y="0" dx="0em" dy="0.95em" style="text-anchor: middle; visibility: inherit; font-family: &quot;Helvetica Neue&quot;, sans-serif; font-size: 12px; font-weight: 200;" fill="rgb(50, 49, 63)" stroke="none" stroke-width="1px">9.000M</text><text x="818.125" y="0" dx="0em" dy="0.95em" style="text-anchor: middle; visibility: inherit; font-family: &quot;Helvetica Neue&quot;, sans-serif; font-size: 12px; font-weight: 200;" fill="rgb(50, 49, 63)" stroke="none" stroke-width="1px">10.00M</text><text x="892.5" y="0" dx="0em" dy="0.95em" style="text-anchor: middle; visibility: hidden; font-family: &quot;Helvetica Neue&quot;, sans-serif; font-size: 12px; font-weight: 200;" fill="rgb(50, 49, 63)" stroke="none" stroke-width="1px">11.00M</text></g><line x1="0" y1="0" x2="892.5" y2="0" fill="rgb(0, 0, 0)" stroke="rgb(204, 204, 204)" stroke-width="1px"></line></g></g></g></g></svg>